<svg width="96" height="97" viewBox="0 0 96 97" fill="none" xmlns="http://www.w3.org/2000/svg">
<rect y="0.5" width="96" height="96" rx="48" fill="#FFE8CC"/>
<path d="M21.7815 39.8001V39.7608C21.7814 35.8764 22.9318 32.079 25.0876 28.8477C27.2433 25.6164 30.3078 23.096 33.8944 21.6044C37.481 20.1128 41.429 19.7169 45.2404 20.4667C49.0517 21.2164 52.5556 23.0782 55.3101 25.8171C57.4772 24.7475 59.8979 24.2977 62.3047 24.5176C64.7114 24.7375 67.0105 25.6184 68.948 27.063C70.8855 28.5077 72.3859 30.4598 73.2835 32.7037C74.181 34.9476 74.4408 37.396 74.0341 39.7783C74.6321 39.8338 75.2121 40.0119 75.7381 40.3016C76.2642 40.5912 76.7248 40.9862 77.0914 41.4618C77.458 41.9375 77.7226 42.4835 77.8687 43.066C78.0148 43.6484 78.0393 44.2548 77.9406 44.8471C75.9655 56.7283 71.0802 64.2485 63.2935 67.4121V70.3486C63.2935 72.0869 62.6029 73.7541 61.3737 74.9833C60.1445 76.2125 58.4773 76.9031 56.7389 76.9031H39.2602C37.5218 76.9031 35.8547 76.2125 34.6255 74.9833C33.3962 73.7541 32.7057 72.0869 32.7057 70.3486V67.4121C24.9189 64.2485 20.0336 56.7283 18.0585 44.8471C17.9632 44.2705 17.9845 43.6806 18.1212 43.1124C18.2579 42.5442 18.5072 42.0091 18.8543 41.539C19.2014 41.0688 19.6393 40.673 20.1421 40.3751C20.6449 40.0772 21.2024 39.8831 21.7815 39.8045V39.8001ZM26.1512 39.7608H30.5208C30.5208 36.8635 31.6718 34.0849 33.7205 32.0362C35.7692 29.9875 38.5478 28.8366 41.4451 28.8366C44.3423 28.8366 47.1209 29.9875 49.1696 32.0362C51.2183 34.0849 52.3693 36.8635 52.3693 39.7608H56.7389C56.7389 35.7046 55.1276 31.8145 52.2595 28.9464C49.3913 26.0782 45.5012 24.4669 41.4451 24.4669C37.3889 24.4669 33.4988 26.0782 30.6306 28.9464C27.7625 31.8145 26.1512 35.7046 26.1512 39.7608ZM34.8905 39.7608H47.9996C47.9996 38.0224 47.309 36.3552 46.0798 35.126C44.8506 33.8968 43.1834 33.2063 41.4451 33.2063C39.7067 33.2063 38.0395 33.8968 36.8103 35.126C35.5811 36.3552 34.8905 38.0224 34.8905 39.7608ZM64.8928 39.7608H69.5727C69.9026 38.4694 69.9333 37.1198 69.6626 35.8147C69.3919 34.5097 68.8268 33.2837 68.0105 32.2301C67.1942 31.1765 66.1481 30.3231 64.9521 29.735C63.756 29.147 62.4414 28.8397 61.1086 28.8366C60.0599 28.8366 59.0636 29.0201 58.1372 29.3566C58.9107 30.5976 59.5486 31.9347 60.038 33.3373C60.8703 33.1309 61.7449 33.1734 62.5532 33.4596C63.3615 33.7457 64.0681 34.263 64.5851 34.947C65.1021 35.6311 65.4069 36.452 65.4616 37.3077C65.5163 38.1635 65.3185 39.0164 64.8928 39.7608ZM58.9238 68.1637H37.0754V70.3486C37.0754 70.928 37.3056 71.4837 37.7153 71.8935C38.125 72.3032 38.6808 72.5334 39.2602 72.5334H56.7389C57.3184 72.5334 57.8741 72.3032 58.2839 71.8935C58.6936 71.4837 58.9238 70.928 58.9238 70.3486V68.1637ZM35.5372 63.794H60.4619C67.3922 61.5655 71.7794 55.2644 73.6321 44.1305H22.367C24.2198 55.2644 28.6069 61.5655 35.5372 63.794Z" fill="#FF8C00"/>
</svg>

