<svg width="30" height="30" viewBox="0 0 30 30" fill="none" xmlns="http://www.w3.org/2000/svg">
<path d="M29.7342 1.74018L12.0542 3.81758V6.16018H29.7342V7.63351H12.0542V15.0002H29.7342C29.7342 17.6669 28.8944 20.0979 27.259 22.2932C25.6236 24.4884 23.502 26.0944 20.8942 27.1552V29.7335H9.10758V27.1552C6.51451 26.0944 4.37818 24.4737 2.74278 22.2932C1.10738 20.1126 0.267578 17.6669 0.267578 15.0002H4.68758V3.21351L29.7342 0.266846V1.74018ZM6.16091 4.51005V6.16018H7.63425V4.36271L6.16091 4.51005ZM6.16091 7.63351V15.0002H7.63425V7.63351H6.16091ZM10.5809 15.0002V7.63351H9.10758V15.0002H10.5809ZM10.5809 6.16018V4.02385L9.10758 4.15645V6.16018H10.5809Z" fill="white"/>
</svg>




